<svg width="253" height="225" fill="none" xmlns="http://www.w3.org/2000/svg"><path fill-rule="evenodd" clip-rule="evenodd" d="M143 220c60.751 0 110-49.249 110-110S203.751 0 143 0 33 49.249 33 110s49.249 110 110 110zM80 95c-8.284 0-15 6.716-15 15 0 8.284 6.716 15 15 15h125c8.284 0 15-6.716 15-15 0-8.284-6.716-15-15-15H80zm8 61c0-8.284 6.716-15 15-15h75c8.284 0 15 6.716 15 15 0 8.284-6.716 15-15 15h-75c-8.284 0-15-6.716-15-15zm15-108c-8.284 0-15 6.716-15 15 0 8.284 6.716 15 15 15h75c8.284 0 15-6.716 15-15 0-8.284-6.716-15-15-15h-75z" fill="url(#prefix__paint0_linear_53_7)"/><circle cx="10" cy="215" r="10" fill="#090F19"/><circle cx="37.5" cy="193.5" r="17.5" fill="#090F19"/><defs><linearGradient id="prefix__paint0_linear_53_7" x1="224" y1="-24.5" x2="90.5" y2="201.5" gradientUnits="userSpaceOnUse"><stop offset=".144" stop-color="#2F4353"/><stop offset=".224" stop-color="#253744"/><stop offset=".324" stop-color="#1B2C36"/><stop offset=".445" stop-color="#111C26"/><stop offset=".605" stop-color="#090F19"/></linearGradient></defs></svg>