<svg width="253" height="225" viewBox="0 0 253 225" fill="none" xmlns="http://www.w3.org/2000/svg">
<path fill-rule="evenodd" clip-rule="evenodd" d="M143 220C203.751 220 253 170.751 253 110C253 49.2487 203.751 0 143 0C82.2487 0 33 49.2487 33 110C33 170.751 82.2487 220 143 220ZM80 95C71.7157 95 65 101.716 65 110C65 118.284 71.7157 125 80 125H205C213.284 125 220 118.284 220 110C220 101.716 213.284 95 205 95H80ZM88 156C88 147.716 94.7157 141 103 141H178C186.284 141 193 147.716 193 156C193 164.284 186.284 171 178 171H103C94.7157 171 88 164.284 88 156ZM103 48C94.7157 48 88 54.7157 88 63C88 71.2843 94.7157 78 103 78H178C186.284 78 193 71.2843 193 63C193 54.7157 186.284 48 178 48H103Z" fill="white"/>
<circle cx="10" cy="215" r="10" fill="white"/>
<circle cx="37.5" cy="193.5" r="17.5" fill="white"/>
</svg>
